<?xml version="1.0" encoding="UTF-8"?>
<svg width="48px" height="48px" viewBox="0 0 48 48" version="1.1" xmlns="http://www.w3.org/2000/svg" xmlns:xlink="http://www.w3.org/1999/xlink">
    <!-- Generator: sketchtool 52.6 (67491) - http://www.bohemiancoding.com/sketch -->
    <title>352803EF-17FA-4ABA-B65E-B6F9F7E1E0C1</title>
    <desc>Created with sketchtool.</desc>
    <g id="Symbols" stroke="none" stroke-width="1" fill="none" fill-rule="evenodd">
        <g id="icon-/-vk-copy" fill="#FFFFFF">
            <g id="if_Odnoklassniki_231074" transform="translate(16.000000, 10.000000)">
                <path d="M1.271225,7.54002941 C1.271225,11.3680515 4.28705,14.4608419 7.9946,14.4608419 C11.7131,14.4608419 14.717525,11.3680515 14.717525,7.54002941 C14.717525,3.71185294 11.7131,0.619371324 7.9946,0.619371324 C4.28705,0.619371324 1.271225,3.71185294 1.271225,7.54002941 Z M7.9946,16.2929375 C6.497825,16.2929375 5.092025,15.8963309 3.867425,15.1963824 C3.33455,14.8812279 3.142025,14.6242868 2.48435,14.6242868 C1.373375,14.6242868 0.4664,15.5583235 0.4664,16.7015882 C0.4664,17.378375 0.7838,17.97425 1.282775,18.3588125 C1.37345,18.4173346 1.475375,18.4875919 1.577525,18.5458051 C2.6318,19.1990441 3.79985,19.7008824 5.03555,20.0163456 L1.31675,23.8443676 C0.53435,24.649625 0.53435,25.9687647 1.31675,26.7739449 C2.09885,27.5788934 3.368825,27.5788934 4.162325,26.7739449 L7.994675,22.8171434 L11.837675,26.7739449 C12.619925,27.5788934 13.901075,27.5788934 14.68355,26.7739449 C15.4655,25.9686875 15.4655,24.6495478 14.68355,23.8443676 L10.9649,20.0163456 C12.200675,19.7008824 13.357025,19.1990441 14.422775,18.5458051 C14.5247,18.4875919 14.6267,18.4173346 14.717525,18.3588125 C15.205025,17.9743272 15.522575,17.378375 15.522575,16.7015882 C15.522575,15.5582463 14.6267,14.6242868 13.515725,14.6242868 C12.857975,14.6242868 12.665225,14.8812279 12.13235,15.1963824 C10.908275,15.8964081 9.502025,16.2929375 7.9946,16.2929375 Z M7.9946,10.4343235 C6.441275,10.4343235 5.1827,9.13904044 5.1827,7.54002941 C5.1827,5.94101838 6.441275,4.64558088 7.9946,4.64558088 C9.55865,4.64558088 10.817525,5.94101838 10.817525,7.54002941 C10.817525,9.13904044 9.558575,10.4343235 7.9946,10.4343235 Z" id="Shape"></path>
            </g>
        </g>
    </g>
</svg>