<?xml version="1.0" encoding="UTF-8"?>
<svg width="48px" height="48px" viewBox="0 0 48 48" version="1.1" xmlns="http://www.w3.org/2000/svg" xmlns:xlink="http://www.w3.org/1999/xlink">
    <g id="Symbols" stroke="none" stroke-width="1" fill="none" fill-rule="evenodd">
        <g id="icon-/-vk" fill="#FFFFFF" fill-rule="nonzero">
            <path d="M35.9797865,17.6589942 L31.7606586,17.6589942 C31.4097892,17.6589919 31.0873327,17.8551336 30.9214183,18.1694819 C30.9214183,18.1694819 29.2386678,21.3205007 28.6981468,22.3818264 C27.2440294,25.236912 26.3023908,24.3405992 26.3023908,23.0155294 L26.3023908,18.4466674 C26.3023908,17.651633 25.6685192,17.0071303 24.886599,17.0071303 L21.7143803,17.0071303 C20.8360125,16.9407272 19.9864683,17.3415448 19.4692085,18.0664092 C19.4692085,18.0664092 21.0800135,17.801596 21.0800135,20.008416 C21.0800135,20.5556427 21.1077351,22.129881 21.1329949,23.4502574 C21.1427494,23.8487936 20.9069913,24.2112134 20.54247,24.3580437 C20.1779486,24.504874 19.762048,24.4049442 19.5007255,24.1077404 C18.2022874,22.2715529 17.1267476,20.2826119 16.297477,18.1841358 C16.1520458,17.8635805 15.836345,17.6584806 15.489151,17.6589942 C14.574157,17.6589942 12.7431687,17.6589942 11.6558055,17.6589942 C11.441766,17.6575133 11.2406709,17.7630469 11.117869,17.9413004 C10.995067,18.1195539 10.9662327,18.347775 11.0407361,18.5518001 C12.204725,21.7981605 17.218818,32 22.9419033,32 L25.3507508,32 C25.8763291,31.9999928 26.3023908,31.5667795 26.3023908,31.0323863 L26.3023908,29.5534505 C26.3023936,29.1742703 26.5239747,28.8313411 26.8662489,28.6807975 C27.2085232,28.530254 27.6060482,28.6008798 27.8778321,28.8605192 L30.7610507,31.6149049 C31.0199871,31.8622715 31.3619194,31.9999845 31.7172169,32 L35.5033767,32 C37.329454,32 37.329454,30.711604 36.3338466,29.7146434 C35.6331761,29.0130162 33.1047998,26.3032701 33.1047998,26.3032701 C32.6574253,25.8320273 32.6147632,25.0995121 33.004312,24.5778776 C33.8215622,23.4843629 35.1582921,21.6943577 35.7251884,20.9275311 C36.500074,19.8794121 37.902505,17.6589942 35.9797865,17.6589942 Z" id="Shape"></path>
        </g>
    </g>
</svg>
