<?xml version="1.0" encoding="UTF-8"?>
<svg width="40px" height="40px" viewBox="0 0 40 40" version="1.1" xmlns="http://www.w3.org/2000/svg" xmlns:xlink="http://www.w3.org/1999/xlink">
    <g id="Symbols" stroke="none" stroke-width="1" fill="none" fill-rule="evenodd">
        <g id="main/footer_1440" transform="translate(-1085.000000, -25.000000)" fill-rule="nonzero">
            <g id="Group-3-Copy">
                <g id="Group" transform="translate(1085.000000, 25.000000)">
                    <rect id="Rectangle-4-Copy" fill="#00ADEF" x="0" y="0" width="40" height="40" rx="20"></rect>
                    <g id="if_back-alt_134226-(1)-copy" transform="translate(20.000000, 21.000000) scale(-1, 1) translate(-20.000000, -21.000000) translate(12.000000, 15.000000)" fill="#FFFFFF">
                        <path d="M14.8571429,4.57142857 L3.88571429,4.57142857 L6.52571429,1.93142857 C6.75085714,1.70628571 6.85714286,1.43771429 6.85714286,1.14285714 C6.85714286,0.580571429 6.39257143,0 5.71428571,0 C5.41085714,0 5.14628571,0.110285714 4.92571429,0.331428571 L0.378285714,4.87885714 C0.190857143,5.06628571 0,5.29771429 0,5.71428571 C0,6.13085714 0.159428571,6.33142857 0.369142857,6.54114286 L4.92571429,11.0971429 C5.14628571,11.3182857 5.41085714,11.4285714 5.71428571,11.4285714 C6.39314286,11.4285714 6.85714286,10.848 6.85714286,10.2857143 C6.85714286,9.99085714 6.75085714,9.72228571 6.52571429,9.49714286 L3.88571429,6.85714286 L14.8571429,6.85714286 C15.488,6.85714286 16,6.34514286 16,5.71428571 C16,5.08342857 15.488,4.57142857 14.8571429,4.57142857 Z" id="Shape"></path>
                    </g>
                </g>
            </g>
        </g>
    </g>
</svg>
