<?xml version="1.0" encoding="UTF-8"?>
<svg width="16px" height="16px" viewBox="0 0 16 16" version="1.1" xmlns="http://www.w3.org/2000/svg" xmlns:xlink="http://www.w3.org/1999/xlink">
    <!-- Generator: sketchtool 52.6 (67491) - http://www.bohemiancoding.com/sketch -->
    <title>8AE7BFD2-47F5-46C3-B1C5-DED5EB20D70D</title>
    <desc>Created with sketchtool.</desc>
    <defs>
        <path fill="#0D87C8" d="M4.18824028,14.4452755 L4.22735539,14.9174408 C4.27295157,15.4678402 3.86372776,15.95099 3.31332842,15.9965862 C2.76292908,16.0421823 2.27977925,15.6329585 2.23418307,15.0825592 L2.00341384,12.296904 C1.95745206,11.7420914 2.37343584,11.2565626 2.9287334,11.2168875 L5.9287334,11.0025427 C6.47961385,10.9631832 6.95809784,11.3778529 6.9974573,11.9287334 C7.03681676,12.4796139 6.62214706,12.9580978 6.0712666,12.9974573 L5.62868916,13.0290787 C6.49242902,13.6572569 7.50182556,14 8.55670103,14 C11.5373409,14 14,11.2543653 14,7.81632389 C14,7.26403914 14.4477153,6.81632389 15,6.81632389 C15.5522847,6.81632389 16,7.26403914 16,7.81632389 C16,12.3133711 12.6933292,16 8.55670103,16 C6.95573118,16 5.43829531,15.4424708 4.18824028,14.4452755 Z M11.7015764,1.33249652 L11.6757127,1.1218901 C11.6083947,0.573723401 11.9981995,0.0747744381 12.5463662,0.00745639673 C13.0945329,-0.0598616447 13.5934819,0.329943208 13.6607999,0.878109904 L13.9925436,3.5794783 C14.060958,4.13657248 13.6575733,4.64085328 13.0990543,4.69645042 L10.0990543,4.99508203 C9.54948569,5.04978822 9.05962416,4.64862294 9.00491797,4.09905432 C8.95021178,3.54948569 9.35137706,3.05962416 9.90094568,3.00491797 L10.5153535,2.94375744 C9.62762005,2.33499085 8.57699329,2 7.4743967,2 C4.45543407,2 2,4.50543032 2,7.60622495 C2,8.1585097 1.55228475,8.60622495 1,8.60622495 C0.44771525,8.60622495 -2.84217094e-14,8.1585097 -2.84217094e-14,7.60622495 C-2.84217094e-14,3.4097835 3.34174074,-1.42108141e-14 7.4743967,-1.42108141e-14 C9.01074743,-1.42108141e-14 10.4748258,0.474941465 11.7015764,1.33249652 Z" id="path-1"></path>
    </defs>
    <g id="Symbols" stroke="none" stroke-width="1" fill="none" fill-rule="evenodd">
        <g id="element/icon+txt-blue-320" transform="translate(0.000000, -3.000000)">
            <g id="icon/load" transform="translate(0.000000, 3.000000)">
                <g id="color-/-blue-copy-7">
                    <mask id="mask-2" fill="white">
                        <use xlink:href="#path-1"></use>
                    </mask>
                    <use id="Mask" fill="#0D87C8" fill-rule="nonzero" xlink:href="#path-1"></use>
                </g>
            </g>
        </g>
    </g>
</svg>
