<?xml version="1.0" encoding="UTF-8"?>
<svg width="28px" height="26px" viewBox="0 0 28 26" version="1.1" xmlns="http://www.w3.org/2000/svg" xmlns:xlink="http://www.w3.org/1999/xlink">
    <g id="Symbols" stroke="none" stroke-width="1" fill="none" fill-rule="evenodd">
        <g id="main/footer_1440" transform="translate(-417.000000, -214.000000)">
            <g id="Group-3-Copy">
                <g id="Group-2" transform="translate(417.000000, 214.000000)">
                    <text id="6+" opacity="0.5" font-family="Montserrat-Regular, Montserrat" font-size="14" font-weight="normal" line-spacing="24" fill="#FFFFFF">
                        <tspan x="6" y="18">6+</tspan>
                    </text>
                    <path d="M16.6243557,0.443375673 L23.7487113,4.55662433 C25.2957167,5.4497883 26.2487113,7.1004234 26.2487113,8.88675135 L26.2487113,17.1132487 C26.2487113,18.8995766 25.2957167,20.5502117 23.7487113,21.4433757 L16.6243557,25.5566243 C15.0773503,26.4497883 13.171361,26.4497883 11.6243557,25.5566243 L4.5,21.4433757 C2.95299462,20.5502117 2,18.8995766 2,17.1132487 L2,8.88675135 C2,7.1004234 2.95299462,5.4497883 4.5,4.55662433 L11.6243557,0.443375673 C13.171361,-0.449788302 15.0773503,-0.449788302 16.6243557,0.443375673 Z" id="Polygon" stroke="#FFFFFF" opacity="0.400000006" fill-rule="nonzero" transform="translate(14.124356, 13.000000) rotate(-270.000000) translate(-14.124356, -13.000000) "></path>
                </g>
            </g>
        </g>
    </g>
</svg>
