<?xml version="1.0" encoding="UTF-8"?>
<svg width="236px" height="157px" viewBox="0 0 236 157" version="1.1" xmlns="http://www.w3.org/2000/svg" xmlns:xlink="http://www.w3.org/1999/xlink">
    <!-- Generator: sketchtool 52.6 (67491) - http://www.bohemiancoding.com/sketch -->
    <title>20E1461B-1D22-4FBB-A5F9-CD7E107B554E</title>
    <desc>Created with sketchtool.</desc>
    <g id="Symbols" stroke="none" stroke-width="1" fill="none" fill-rule="evenodd">
        <g id="Logo">
            <g>
                <text id="МОЯ-РОССИЯ" font-family="Montserrat-Bold, Montserrat" font-size="32" font-weight="bold">
                    <tspan x="0" y="149" fill="#151F6D">МОЯ</tspan>
                    <tspan x="80.448" y="149" fill="#E00640"> РОССИЯ</tspan>
                </text>
                <g id="Group-3" transform="translate(1.000000, 0.000000)">
                    <g id="Mask" fill="#CCCCCC">
                        <polygon id="polygon92" points="105.04808 20.3183128 105 20.1395435 105.360044 20.2960035 105.539987 20.128315 105.791971 19.8936988 106.164075 19.5473886 106.392098 19.8043141 106.51206 19.8043141 106.811964 19.5250794 107.088067 19.2233878 107.615995 19 108 19.2681539 107.784037 19.8267711 107.784037 20.1395435 107.532053 20.3741597 107.135989 20.5418483 106.704062 20.6983083 106.272136 20.6983083 105.948112 21 105.432085 20.8323114 105.168042 20.4747728"></polygon>
                        <polygon id="polygon94" points="103.384668 20.0874341 102.728241 20.0874341 102.512867 20.3169304 102.174346 20.5682492 101.928186 20.305947 101.333333 20.5026375 101.374428 20.896163 101.528363 21.0601922 101.753908 21.3005275 101.907843 21.4644122 101.682162 21.6612472 101.374428 21.3771226 101.210321 21.5518462 100.98464 21.3113664 100.471841 21.4207674 100.24616 21.2896886 100.143627 21.5738131 100.307734 21.7485367 100 21.9235494 100 22.3387528 100.246296 22.601055 100.184586 22.9071465 100.410267 22.9071465 100.697521 23.213238 100.615332 23.5629742 100.98464 23.7596647 101.476961 23.7814871 101.682162 24 102.051334 24 102.48208 23.8689212 102.48208 23.5191849 102.215441 23.2568827 102.359068 23.103837 102.574441 23.3333333 102.953921 22.6011995 103.312922 22.2186574 103.466857 22.3825421 103.79507 22.0328058 103.897467 21.704892 103.528295 21.5738131 103.282135 21.8361153 102.974536 21.5956355 102.605228 21.3551557 102.23592 21.0710311 102.359068 20.7869066 102.553962 20.5792326 102.707761 21.1364983 102.943614 21.3879616 103.343573 21.4644122 103.589869 21.3551557 103.79507 21.3551557 104 21.1366428 103.897467 20.6775056 103.569389 20.6775056 103.651443 20.2841246 103.651443 20"></polygon>
                        <polygon id="polygon96" points="104.32153 24.024649 104 24.2221678 104.25 24.7159647 104.660765 25 105 24.543095 105 24.1728697 104.75 24"></polygon>
                        <polygon id="polygon98" points="105.240914 24.5542015 105 24.8313819 105.136241 25.204779 105.366632 25.4698526 105.219868 25.8553564 105.345725 26 105.534164 25.5421744 106.015715 25.421585 106.434683 25.2288331 107 24.8433294 106.706888 24.2169654 106.308965 24.2169654 105.74351 24 105.481689 24.2771804"></polygon>
                        <polygon id="polygon100" points="99.8333701 24.294049 99.5333921 24.029366 99 24 99.3502314 24.3088292 99.566674 25 100 25 100 24.6176585"></polygon>
                        <polygon id="polygon102" points="88.3812704 33.0445195 88 33.4556274 88 33.7333235 88.3193839 33.7333235 88.4225736 34 88.6905671 33.8667352 89 33.5333529 89 33 88.6082334 33"></polygon>
                        <polygon id="polygon104" points="102.977134 16.8002678 102.84069 17.0513856 102.988567 17.1997322 103.15931 17.0513856"></polygon>
                        <polygon id="polygon106" points="101.806527 26.8516534 101.193473 26.7603516 101 26.8744411 101.354949 26.9885307 101.806527 27.2396484 102 27.0570448"></polygon>
                        <polygon id="polygon108" points="83.9432864 26.8630473 83.8521234 27.0000755 84.0570145 27.1369527 84.1478766 26.9771368"></polygon>
                        <polygon id="polygon110" points="83.2857952 24.7718209 83 24.9086982 83.4000756 25.0685141 83.6856819 25.2281791 84 25.1598159 83.9142425 24.8631227 83.5999244 24.9314859"></polygon>
                        <polygon id="polygon112" points="80.3141187 24.3249587 80.3141187 23.9750413 80.3388701 23.3499174 80.1654464 23 79.9174407 23.0249587 79.5704295 23.4499174 79.5951809 23.8249587 79.4463447 24.0750413 79.5455142 24.7500826 79.2480057 25.0500826 79.2727571 25.7249587 79.1240848 26.3 79 26.8750413 79.2232543 27 79.6943503 26.6249587 79.9671074 26.4500826 80.5868758 26.125124 81.0827232 26.0750413 81.7026554 25.6 82 25.0249587 81.801661 24.5249587 81.5785706 24.1499174 81.2810622 24.2750413 80.9835537 23.7499174 80.7602994 23.5249587 80.4875423 23.8499174"></polygon>
                        <path d="M78.2866522,21.3221512 L78.0978778,21.5436635 L77.9300476,21.8457135 L77.7831615,21.7852769 L77.8880207,21.402689 L77.8880207,21 L77.4265569,21.1409744 C77.4265569,21.1409744 77.1538675,21.2014111 77.0908965,21.2215122 C77.0279255,21.2416134 76.7132091,21.3423855 76.7132091,21.3423855 L76.566323,21.6444356 L76.4824079,21.9061502 L76.2936335,22.1276624 L76.3566046,22.389377 L76,22.6510916 L76.1678302,22.792066 L76.4194369,22.7115282 L76.629294,22.993344 L76.6502381,23.2550586 L76.8390124,23.4765708 L77.321559,23.5167732 L77.38453,23.7784878 L77.7201905,23.5772098 L77.8880207,23.8389244 L78.3494845,24 L78.7901429,23.7985889 L79,23.51664 L78.8321698,23.1944888 L78.5593416,22.8320021 L78.7691988,22.6910277 L78.8531139,22.3487753 L78.748116,21.9661874 L78.7901429,21.5835996 L78.2866522,21.3221512 Z" id="path114"></path>
                        <polygon id="polygon116" points="77.9584022 28 77.5415978 28.4998622 77 28.6249656 77.5 29 78 28.4998622"></polygon>
                        <polygon id="polygon118" points="73.931703 28.8402595 73.8179749 29.0227123 73.977134 29.1597405 74.1820251 28.8628964"></polygon>
                        <path d="M72.1138033,34.7810376 L71.8407657,34.9180658 C71.8407657,34.9180658 71.9544937,35.2604853 71.9544937,35.214759 C71.9544937,35.1690326 72.1592343,35.1234571 72.1592343,35.1234571 L72.1138033,34.7810376 Z" id="path120"></path>
                        <polygon id="polygon122" points="70.0683722 32.7603516 69.8180501 32.965592 69.9544937 33.2396484 70.1819499 33.1939221"></polygon>
                        <polygon id="polygon124" points="70.0739471 35.7718209 70 36.0227877 70.6295299 36.0227877 70.9630264 36.2281791 71 35.8857595 70.6295299 35.8401841"></polygon>
                        <polygon id="polygon126" points="68.8976297 21.7945332 68.7610357 21.9315614 68.9203452 22.0228632 69.1706673 22.2054668 69.2389643 21.9771368"></polygon>
                        <polygon id="polygon128" points="67.2800846 38.0909455 67 38.3635817 67.1600106 38.7271635 67.4400952 39 67.8399894 38.6666667 68 38.2728365 67.6400423 38"></polygon>
                        <polygon id="polygon130" points="66.4893797 38.0938017 66.2553102 38.4376033 66 38.75 66.2340695 39 66.425517 38.75 66.7234491 38.75 67 38.375 66.7446898 38"></polygon>
                        <polygon id="polygon132" points="65.2726908 35.8060025 65 35.9886061 65.1817271 36.1939975 65.5453817 36.0113939 66 36.1026957 65.8787818 35.8973043"></polygon>
                        <polygon id="polygon134" points="63.9203452 36.7717454 63.8066172 37.0684386 63.9886422 37.2282546 64.1933828 36.9771368"></polygon>
                        <polygon id="polygon136" points="62.3191729 36.0696602 62.0851034 36.2557281 62.1702068 36.4651699 62 36.720898 62.0424814 36.883746 62.425517 37 62.7871712 36.813932 63 36.8373059 63 36.604644 62.6595864 36.51161 62.8297932 36.302322 62.6382051 36 62.4042763 36.093034"></polygon>
                        <polygon id="polygon138" points="51.5833333 39 51.25 39.2051195 51 39.3076793 51.0625344 39.9744024 51.1041322 40.3334463 51.3333333 40.410239 51.4166667 40.9486354 51.85427 41 52 40.5641634 51.7915978 40.1283268 51.8125344 39.6411256"></polygon>
                        <polygon id="polygon140" points="44.1538527 37 43.589811 37.179019 43.2563364 37.6866673 43 38.0747064 43.1793676 38.6417645 43.589811 38.820981 43.9743155 39 44.3333898 38.7015691 44.7692634 38.7911773 45 38.1643146 44.6410952 37.6268627 44.6153259 37.179019"></polygon>
                        <polygon id="polygon142" points="28.9089875 37.8287902 28.8179749 37.9656675 28.9772845 38.1712098 29.1820251 37.9656675"></polygon>
                        <polygon id="polygon144" points="50.0391898 37.5090656 49.7899089 37.5090656 49.518007 37.1073785 49.3595098 37.1966259 48.8837188 36.7503889 48.5210331 36.3711243 48.657059 35.9694373 49.0195949 35.8579149 49.155471 35.6348702 48.9061901 35.4341004 48.9289609 34.8984685 48.770314 34.8539186 48.6116671 34.4522315 48.271902 34.4299565 48 34.050692 48.090634 33.5597575 48.4530201 33.0689706 48.8837188 33.1135205 49.0195949 33.2697404 49.178092 33.3367128 49.246105 33.0465481 49.7672879 32.8904758 50.1752157 32.4665138 49.9033138 32.1764966 50.2658497 31.9533044 50.6736278 32.1095242 50.7870326 31.7748096 50.7870326 31.4400949 51.3080657 31.4400949 51.5573466 31.6855622 51.8178631 31.4290312 51.8744907 31.1947752 52.4410654 31.0831054 52.248412 30.8935468 51.7612356 30.7261158 51.7612356 30.5477685 52.3278104 30.3914011 52.9168564 30.2353288 53.2113794 29.9453117 53.5965364 29.9453117 53.5965364 29.6775695 54.1404902 29.655147 53.8459672 29.3651298 54.3217581 29.3428548 54.5030261 29.5213496 54.4802553 29.0751126 54.7069151 28.8519204 54.4576342 28.5619032 54.6162812 28.316436 54.8881831 28.5841782 55.228098 28.5841782 55.228098 28.2494636 55.7265101 28.4279584 55.975791 28.1602162 56.2250719 27.870199 56.5423658 27.870199 57.0860199 27.6248793 57.4713267 27.7586766 58.0377517 27.7586766 58.4116731 27.3904758 58.8534576 27.423962 59.0573466 27.7141267 59.5331376 27.7141267 59.7597975 27.9371714 60.1677253 27.8255016 60.7341503 27.8255016 61.1080717 27.4574482 61.5498562 27.2231923 62.1389022 27 62.6827061 27 63 27.4909344 63 28.0264188 62.524209 28.4503809 62.0936601 28.8519204 61.5272351 28.8966179 60.8474053 29.20891 60.2355884 28.9858653 59.9410654 29.2758824 59.2386146 29.2536074 58.3322747 29.2536074 57.9923598 29.610597 57.2900587 29.610597 56.7688758 29.9006142 56.9275228 30.2576038 56.564837 30.3914011 56.1344379 30.3468512 55.7492809 30.3468512 55.703889 30.5923184 55.296111 30.4806485 55.296111 30.8823356 54.8881831 31.1723528 54.5482682 31.41782 54.5482682 31.0385554 54.2763663 31.2840226 54.3443792 31.7302596 54.0724772 31.7302596 53.8798238 31.5405536 53.8798238 31.7525346 53.8798238 32.0872492 53.6816275 31.8919376 53.4268037 32.1428629 53.2113794 32.3549914 52.9167066 32.3549914 52.6901965 32.6450086 52.3956735 33.1357955 51.9198826 33.1357955 51.5345757 33.4482352 51.5345757 33.8721972 51.1494187 34.028417 51.0133929 34.474654 50.6962488 34.7869461 50.6962488 35.344853 50.5376019 35.7463926 50.7414909 36.3264269 50.5602229 36.9066087 50.8095038 37.2858733 50.9227589 37.6875603 50.7868828 37.8215052 50.4017258 38 50.4017258 37.7098353"></polygon>
                        <polygon id="polygon146" points="70.523749 18.8255456 70.2062484 18.8632736 70 18.9858143 70.3175006 19.1744544 70.7459995 19.0896418 71 18.9387297"></polygon>
                        <polygon id="polygon148" points="75.3 18.7878176 75 18.9575937 75.2333333 19.0896418 75.4834667 19.2310464 76 18.9575937 76 18.7689536"></polygon>
                        <polygon id="polygon150" points="76.9384615 19 76.8923077 19.3508772 76.6153846 19.4912281 76.2 19.8070175 76.2 20.245614 76.3692308 20.4385965 76.1462154 20.6929123 76 21.0175439 76.2 21.3333333 76.2769231 21.6491228 76.6307692 22 76.9538462 21.6491228 77.1692308 21.6491228 77.4923077 21.4385965 77.8769231 21.2982456 77.7692308 20.877193 77.7692308 20.3508772 78 20.122807 77.8077538 19.9034386 77.4153846 19.4561404 77.2769231 19.1052632"></polygon>
                        <polygon id="polygon152" points="75.3090909 22.0392157 75 22 75.0545455 22.4313725 75.0545455 22.7058824 75.4545455 22.8235294 75.6181818 23 75.8637091 22.7352157 76 22.3529412 75.7636364 22.1568627"></polygon>
                        <polygon id="polygon154" points="70.9106422 30.8679519 70.7884899 30.9904925 70.9482507 31.1320481 71.2115101 31.056592"></polygon>
                        <polygon id="polygon156" points="64.9811958 15.7736318 64.7931533 15.8302239 64.9435873 16.037728 64.9435873 16.2263682 65.2068467 16.2263682 65.2068467 15.8679519"></polygon>
                        <polygon id="polygon158" points="64.7091796 17.04 64.6098945 17.26 64.2411211 17.36 64 17.54 64.1843867 17.66 64.0992851 17.94 64.2553047 18 64.5673437 18 64.8156133 17.64992 65 17.38992 64.9361171 17"></polygon>
                        <polygon id="polygon160" points="63.1863303 16.9151119 63 17.0187886 63.3558449 17.2169362 64 17.0848881 64 16.7830638 63.6270681 16.7830638"></polygon>
                        <polygon id="polygon162" points="63.4718873 17.2660645 63.2676056 17 63.1126761 17.1774194 63 17.4354839 63 17.7580645 63.2394366 17.8064516 63.2957746 18 63.5915493 17.9193548 63.7817465 17.7015484 63.9225915 17.5402581 64 17.2741935 63.7887324 17.2741935"></polygon>
                        <polygon id="polygon164" points="61.9482507 18.8207919 61.8260984 18.9433325 61.8260984 19.1792081 62.0798804 19.1792081 62.1739016 18.8773839"></polygon>
                        <polygon id="polygon166" points="61 17.3187412 60.8292683 17.1649086 60.2926829 17.1649086 60.2926829 17.4945499 60 17.758263 60.1707317 17.9120956 60.7560976 17.8022152 60.9756098 18 61.4878049 17.8901195 61.6341463 17.5824543 62 17.6923347 61.804878 17.2967651 61.4757073 17"></polygon>
                        <polygon id="polygon168" points="62.9200444 14.7878176 62.8072189 15.0141857 63.0047387 15.2121824 63.1927811 15.0235423"></polygon>
                        <polygon id="polygon170" points="62.5 15 62 15 62 15.3673469 62.53125 15.7142857 62.53125 16 63 15.8571429 62.71875 15.4693878"></polygon>
                        <polygon id="polygon172" points="61.1598361 15.8632736 60.8965767 15.8632736 60.8401639 15.9198657 61.0564879 16.1367264"></polygon>
                        <polygon id="polygon174" points="60.9858592 16.8113599 60.8072941 16.9904925 60.9858592 17.1886401 61.1927059 17.1697761"></polygon>
                        <polygon id="polygon176" points="61.8683703 15.8962479 61.8683703 16.1414801 62.1316297 16.1414801 62.075217 15.8585199"></polygon>
                        <polygon id="polygon178" points="61.8919132 15.8914942 61.8919132 16.1085058 62.1080868 16.1085058 61.9388486 15.9387297"></polygon>
                        <polygon id="polygon180" points="61.8683703 16.990568 61.9623915 17.0848881 62.1316297 16.9151119"></polygon>
                        <polygon id="polygon182" points="61.8871745 15.8585199 61.8871745 16.1226161 62.1128255 16.1414801 62.1128255 15.8585199"></polygon>
                        <polygon id="polygon184" points="61.8730338 14.8773839 62.0046635 15.1226161 62.1269662 14.9999245 62.0046635 14.8773839"></polygon>
                        <polygon id="polygon186" points="59.2726215 16.4324324 59 16.635027 59.472796 16.9863784 60 17 60 16.3513514 59.6363107 16"></polygon>
                        <polygon id="polygon188" points="59.8589682 16.8679519 59.9529894 17.1320481 60.1410318 17.1320481 60.1410318 16.9056799"></polygon>
                        <polygon id="polygon190" points="59.4656489 15.0921053 59.3129771 15.2236842 59.3129771 15.3684211 59.1374656 15.5196842 58.8244275 15.3289474 58.5648855 15.4473684 58.5648855 15.6052632 58.2442748 15.4078947 58 15.4868421 58.0763359 15.8026316 58.3053435 15.7368421 58.3053435 15.9473684 58.5496183 16 58.7710534 15.8091579 59.0839695 15.6973684 59.3435115 15.7631579 59.7251908 15.7631579 60 15.5263158 59.740458 15.3026316 59.9160916 15.1512632 59.6183206 15"></polygon>
                        <polygon id="polygon192" points="57.5866667 14.3023256 57.2933333 14.3023256 57.12 14 57 14.4186047 57.1533867 14.6859535 57.2133333 15 57.56 14.7906977 57.68 15 57.9066667 14.8372093 58 15 58 14.6511628 57.84672 14.3836279 57.7066667 14.3836279"></polygon>
                        <polygon id="polygon194" points="57.9624667 16.8726302 57.8025554 16.8726302 57.8589682 17.1085058 58.1974446 17.1273698"></polygon>
                        <polygon id="polygon196" points="58.9435873 16.8113599 58.7743491 16.981136 58.9059788 17.1131841 59.2256509 17.1886401 59.0188042 16.981136"></polygon>
                        <polygon id="polygon198" points="59.8119576 14.8773839 59.8119576 15.1226161 60 15.1226161 60.1880424 14.933976"></polygon>
                        <path d="M125.966012,10.2733109 L126.166585,9.54314435 L126.93156,8.80028712 L127.784107,7.94412038 L128.172914,7.55388238 L128.92525,7.2264934 L129.464224,6.91179509 L129.965881,6.40824757 L130.480028,5.89200939 L131.107024,5.64016009 L131.558426,4.98553322 L132.410973,4.73368392 L132.862375,4.25521558 L133.414138,4.00336628 L133.765178,3.80197749 L134.166474,4.20490615 L134.743214,4.02859653 L135.257361,4.41883453 L135.595912,4.07890596 L136.197781,3.75151698 L136.197781,3.44935826 L135.595912,3.57520737 L134.893682,3.52489794 L134.44228,3.39904883 L134.592747,2.94581074 L135.069277,2.61842176 L134.667981,2.51765183 L134.667981,2.29103278 L134.943938,2.31641412 L134.994043,1.86317603 L135.244872,1.51070788 L135.595912,1.15823972 L136.197781,0.931620678 L136.373376,0.931620678 L136.824778,0.302072974 C136.824778,0.302072974 137.251051,0.176223865 137.401518,0.0251445022 C137.551985,-0.12593486 137.401518,0.453152337 137.401518,0.453152337 L137.727581,0.730080808 L137.978259,0.981930106 L137.702453,1.5610173 C137.702453,1.5610173 138.078621,1.5610173 138.229088,1.40993794 C138.379555,1.25885858 138.229088,1.71209667 138.229088,1.71209667 L138.229088,2.24087444 L137.652347,2.61857284 L138.103749,2.69411252 L138.379555,2.41718405 L138.968935,2.6438031 L138.968935,2.37941421 L139.432825,2.84519189 L139.758888,3.34889048 L140.034694,3.2733508 L140.3105,2.92088265 L140.3105,3.24827163 L140.486096,3.65120029 L139.95946,3.65120029 L139.95946,3.85258908 L140.385734,3.97843819 L140.160033,4.63306506 L139.583292,4.68337449 L139.056657,5.26246169 L138.780851,5.86677914 L138.254216,6.04308876 L137.878048,5.89200939 L137.401518,5.89200939 L136.975245,6.5215571 L137.163329,6.8992555 L137.163329,7.54134279 L136.749544,7.95681104 L136.423482,7.70496174 L136.097419,7.95681104 L135.62104,7.95681104 L135.345083,7.730192 L135.094405,7.57911264 L135.056788,7.81827127 L135.244872,8.00712047 L135.019171,8.1078904 L134.868704,8.25896977 L135.307466,8.33450945 L135.307466,8.67443801 L135.646018,9.01436658 L136.197781,8.86328722 L136.573949,8.86328722 L136.598926,9.34175556 L136.824627,9.11513652 L137.213434,9.50552559 L137.627219,9.92099384 L137.827792,10.6511604 L137.928153,11.2302476 L137.526857,11.8848745 L137.150689,11.8848745 L136.624054,12.1114935 L136.44861,12.5142711 L136.874883,12.3379615 L137.150689,12.3379615 L136.749544,12.8165809 L137.000222,13.0682791 L137.326285,12.94243 L137.326285,12.4639617 L137.627219,12.2373426 L138.166343,12.224803 L138.479917,11.9101047 L138.630384,11.6582554 L139.006552,11.6834857 L139.307486,11.6331763 L139.859099,11.607946 L139.859099,11.9604142 L140.3105,11.9604142 L140.43599,11.7212555 L140.874752,11.7212555 L141.13807,11.4568666 L141.464132,11.4065572 L141.739939,11.6331763 L142.141235,11.3310175 L142.329319,11.771716 L142.692998,12.1368748 L142.692998,12.6656526 L142.19134,12.8670414 L141.865428,13.5718266 L141.338793,13.5718266 L141.188326,13.7984457 L141.777555,14.1886837 L141.589471,14.3775329 L142.015895,15.0323108 L142.19134,15.8380171 L142.19134,16.7444933 L142.341807,17.4495806 L142.592636,18.0538981 L142.718126,18.8596043 L142.968804,19.6402314 L143.445334,20.0682392 L143.445334,20.7984058 L143.696162,21.8056519 L144.122436,22.2841202 L144.398242,22.5610487 L143.971969,22.9387471 L143.520567,22.7121281 L142.893571,22.9135169 L142.567659,23.6689137 L142.041023,24.4243105 L142.31683,24.70139 L142.116257,25.4064774 L142.116257,25.7841758 L142.542531,26.4388027 L142.542531,26.8417314 L142.066001,26.6151123 L141.714961,26.2624931 L141.414027,26.2877234 L141.689833,27.0178899 L141.689833,27.4963583 L142.153723,27.7104377 L141.689833,28.1762154 L141.388899,28.1762154 L141.388899,28.8308423 L141.113092,29.1077707 L141.48926,29.7373184 L141.790195,30.0394772 L142.141235,30.3919453 L142.617764,30.8704137 L142.717975,31.575501 L142.793209,32.1295091 L143.48295,32.4945168 L143.896735,32.9099851 L144.598815,32.9099851 L144.410731,32.4819772 L144.410731,32.2678978 L144.649071,32.0287391 L144.824666,31.6510407 L145.476641,32.3056676 L145.60198,32.8847548 L146.253954,33.3379929 L146.899759,33.4827269 L147.156757,33.2246834 L147.570542,33.2246834 L148.05956,33.7156913 L147.858988,34.1941596 L147.357481,34.345239 L147.507948,34.9495565 L148.034583,35.8308024 L148.498473,35.9441119 L148.862152,36.3092707 L149.714699,36.2085008 L150.216357,36.6114294 L150.391802,37.0646675 L150.090867,37.2660563 L149.664594,37.5429848 L149.413765,38.0969928 L149.58936,39.1042389 L150.090867,39.884866 L150.52978,40.0484849 L150.742992,40.2625644 L151.4702,40.438874 L151.4702,40.7410327 L150.918437,40.8165724 L150.918437,41.2698105 L150.717864,41.7230486 L150.968693,42.6295248 L151.394816,42.8058344 L152.046941,43.4604613 L152.52347,43.9136994 L152.623832,44.7194056 L152.87451,45.7769611 L153,46.4568183 L153,46.9603658 L152.724043,46.5826674 L151.996835,46.5826674 L151.532945,46.3435087 L151.169266,45.9783499 L150.667759,45.9783499 L150.216357,45.5251118 L149.338531,45.1221832 L148.510962,44.769715 L147.558053,44.2661675 L147.282247,43.8884691 L146.830845,43.5863104 L146.329188,43.4855404 L145.25094,43.1581515 L144.54871,42.7804531 L143.871607,42.327215 L143.545545,41.7228975 L142.818337,40.992731 L142.31683,40.4639532 L142.316679,39.9351754 L141.965639,39.5827073 L141.890406,39.0036201 L141.464132,38.3993026 L141.000091,38.2985327 L141.000091,38.0844532 L141.213303,37.8703738 L141.388899,37.4926754 L141.150709,37.0772071 L141.37641,36.8505881 L141.564494,36.6617389 L141.313665,35.9063421 L141.188326,35.1006358 L140.887392,34.1689294 L140.410862,33.5393817 L140.210289,32.7084452 L139.984588,31.9278181 L139.73376,31.2982704 L139.432825,30.366564 L139.131891,30.1147147 L139.106763,29.6111672 L139.282358,29.0068497 L139.282358,28.6543816 L139.282358,28.2263737 L138.981424,27.924215 L138.655361,27.2946673 L138.329449,27.2946673 L138.015876,27.1813578 L137.727581,26.8917386 L137.37639,26.4385006 L136.849755,26.1111116 L136.849755,25.5320244 L137.326285,25.0789374 L137.163178,24.9151673 L136.774521,25.3054053 L136.222909,25.6075641 L136.222909,26.1363418 L136.072442,26.5392705 L136.373225,26.816199 L136.812138,27.2568975 L137.225923,27.6723657 L137.727581,27.6723657 L137.677325,27.9997547 L137.451624,27.9745244 L137.213434,28.314453 L137.526857,28.6291513 L137.526857,29.4348576 L137.777686,30.039175 L137.827792,30.9959606 L137.652347,31.575501 L137.451624,31.0719535 L137.000222,30.8453345 L137.000373,31.4748822 L136.624205,31.0971838 L136.373376,30.8453345 L136.172653,30.4173267 L135.470573,29.7626998 L135.671146,30.3167078 L135.470573,30.9210252 L134.793471,30.9210252 L134.793471,31.3239539 L134.56777,32.1548904 L134.291813,32.4822794 L134.316941,33.5901443 L134.768342,33.8923031 L134.693109,34.5973905 L135.14451,35.3024778 L135.14451,36.0578747 L135.282489,37.0524301 L135.696274,37.4678983 L135.696274,37.9211364 L136.047314,38.2736046 L136.373376,38.2232952 L136.661671,37.9589063 L136.874883,37.7448268 L137.251051,37.7448268 L137.225923,38.2232952 L136.824778,38.3491443 L136.824778,39.0290014 L136.072442,39.1548505 L136.247886,40.0360964 L136.172653,40.4137948 L135.696274,40.6150326 L135.696274,41.1438103 L135.520678,41.6222787 C135.520678,41.6222787 134.931298,41.7608184 135.044149,41.6475089 C135.156999,41.5341994 134.818448,41.4208899 134.818448,41.4208899 L134.818448,41.0935009 L134.91881,40.7661119 L135.332594,40.6275721 L135.14451,40.4387229 L134.693109,40.6150326 L134.216579,40.6905722 L134.216579,40.9171913 L133.514499,41.2445803 L133.163309,41.6725881 L132.762164,41.773358 L132.436101,42.100747 L132.310762,42.4784454 L132.435951,42.9569138 L132.711907,43.2338422 L132.385996,43.5863104 L131.85936,43.3849216 L132.022316,43.9262389 L131.63366,44.3164769 L131.282469,44.6438659 L130.981535,44.6438659 L130.6806,44.9207944 L130.881324,45.2481834 L131.031791,45.3992627 L130.605367,45.6761912 L130.028626,45.6761912 L129.464374,46.2427388 L129.100695,46.6078976 L128.699399,47.2877548 L128.273125,47.7157626 L127.846852,48.5719293 L127.771618,49.4028658 L128.172914,50.2085721 L127.796746,50.5862705 L127.671407,51.3919767 L127.896958,51.9710639 L128.248148,52.3235321 L127.947214,52.8270796 L127.947214,53.5069367 L127.947214,54.4134129 L127.796746,55.0429606 L127.796746,55.8991274 L128.047575,56.1760558 L128.047575,56.7803733 L128.047575,57.4602304 L127.821874,58.3163972 L127.821874,59.0214845 L127.445706,59.6510322 L127.445706,60.2804289 L127.244983,60.8344369 L127.470684,61.3443297 L127.853172,61.3443297 L128.147786,61.0485164 L128.561421,61.0485164 L128.887633,60.7209763 L129.251162,60.3559686 L129.501991,60.6078179 L129.802925,60.7588972 L129.802925,61.0862862 L130.041265,61.5268336 L130.3422,61.8289923 L130.605517,61.5646035 L130.605517,61.1618259 L130.254327,61.0107465 L130.254327,60.6330481 L130.530284,60.3308894 L130.530284,60.5825876 L130.831218,60.8092066 L130.981685,60.7588972 L131.132152,60.9099766 L131.132152,61.3632147 L131.132152,61.6906036 L131.63366,61.4892149 L131.63366,61.2375166 L131.909466,60.8598182 L132.085061,60.7087389 L132.360868,60.9101277 L132.423612,60.4946594 L132.185423,60.2555008 L131.959722,59.8273419 L131.683765,59.3237943 L132.135167,59.0720961 L132.411124,58.7950166 L132.962736,58.6691675 L133.614861,58.6691675 L134.153985,58.7321676 L134.392175,58.9713262 C134.392175,58.9713262 134.969066,58.8705563 135.094405,58.8705563 C135.219744,58.8705563 135.570784,58.7193258 135.570784,58.7193258 L135.884358,59.0341752 L135.646018,59.2734849 L135.470573,59.4496435 L135.320106,59.726723 L135.746379,59.726723 L136.197781,59.726723 L136.298142,60.0539609 L136.67431,60.4316593 L137.138351,60.3688103 L137.376541,60.6079689 L137.627219,61.0864373 L137.702453,62.0432229 L138.028515,63.050469 L138.542511,63.7931751 L139.181996,64.4352624 L139.432825,64.6872628 L139.558164,65.1151196 L140.059822,65.6188182 L140.410862,66.2231356 L140.536352,66.5757548 L141.000242,67.2933818 L141.388899,67.6834687 L141.388899,68.7410243 L141.238431,69.6475004 L141.514388,70.5539766 L141.48926,71.485532 L141.765067,72.2158496 L141.965639,73.0217069 L142.116107,73.7517224 L142.266574,74.7337383 L142.266574,75.6906749 L142.116107,76.1943735 L142.116107,77.1763894 L142.116107,78.3850243 L141.965639,79.2915005 L142.116107,80.2230558 L142.066001,81.4316907 L142.066001,82.010929 L141.564494,82.8418655 L141.238431,83.5468018 L140.862264,84.2520403 L140.536201,84.2520403 L139.909355,84.5035874 L139.38272,84.8057461 L139.01904,84.6546668 L139.01904,84.3147382 L138.830957,84.125889 L138.642722,84.5540479 L138.642722,85.0196745 L138.429661,84.8057461 L138.103749,84.4785082 L138.103749,84.7302064 L138.003387,85.3596031 L138.103749,85.787762 L137.96577,86.2787699 L137.752558,86.4926983 L137.752558,86.7446987 L137.752558,87.1474763 L137.276179,87.1223971 L137.075456,86.9208572 L137.251051,86.3416189 L137.551985,85.7373015 L137.551985,85.233905 L137.288668,84.6419761 L136.749544,84.1008098 L136.473587,83.8237303 L136.247886,83.244492 L135.771507,82.7661747 L135.320106,82.6150954 L135.307466,82.1240874 L135.62104,81.8092381 L135.896846,81.5324607 L135.896846,81.0287621 L136.247886,80.6761428 L136.649182,80.4749051 L137.063118,80.6132938 L137.426646,80.2482861 L137.652347,79.795048 L137.251051,79.1653492 L137.451624,78.6365714 L137.200945,78.0827145 L137.150689,77.5034762 L136.799649,77.025159 L136.900011,76.6223814 L136.624054,76.143762 L136.498715,75.589905 L135.997208,75.0611272 L136.373376,74.6834288 L136.373376,74.1292697 L136.059953,73.8147225 L135.696274,73.4494126 L135.595912,73.1221747 L135.169638,73.1221747 L134.56777,73.4494126 L134.417303,73.9531112 L134.016007,74.6078892 L133.564605,75.1868253 L133.765328,75.8165241 L133.238693,76.2443808 L132.712058,76.5465395 L132.260656,76.6976189 L132.135167,77.150857 L131.658788,77.150857 L131.182258,76.8740796 L130.831218,76.7480794 L130.831218,76.1688411 L130.429922,75.8165241 L130.10386,75.488984 L129.564736,75.3505953 L129.27629,75.6400634 L128.699549,75.488984 L128.22302,75.363286 L127.495812,75.4639048 L126.81871,75.4639048 L126.542903,75.7409844 L125.790567,76.0177618 L125.038231,75.8666824 L124.724808,75.2499764 L124.361129,74.8846665 C124.361129,74.8846665 123.934856,74.6329683 123.934856,74.5320473 C123.934856,74.4311263 123.458326,74.05373 123.458326,74.05373 L122.856457,73.9531112 L122.605628,73.3487937 L122.028737,72.8955557 L121.627592,72.4927781 L121.075829,72.3416987 L120.875256,71.8129209 L120.373598,71.5863019 L120.072664,71.2841432 L119.06965,71.1832222 L118.543014,71.1832222 L117.941146,71.5107622 L117.18881,71.384762 L116.611919,71.5863019 L115.985072,71.5863019 L115.132224,72.2156985 L114.731079,72.6184761 L113.941126,73.0844049 L113.552469,73.4747939 L113.276663,74.3057304 L113.07594,74.8091269 L113.351897,75.1617461 L113.740553,74.8468967 L114.053976,75.1617461 L114.405167,75.5143653 L114.60574,76.3199205 L114.405167,76.7480794 L114.2547,77.8307141 L114.2547,78.5105712 L113.978743,79.2158097 L114.354911,79.9458252 L114.580612,80.1724442 L114.580612,80.8776827 L114.053976,81.0287621 L113.715425,81.8219287 L113.226407,82.3129366 L112.398837,82.6150954 L111.471057,82.5395557 L110.793954,82.4135555 L110.292447,82.7157142 L109.590217,83.1184918 L109.063582,82.8417144 L108.587052,82.6652537 L107.960206,82.9423333 L107.433571,83.471111 L107.057403,83.8488094 L106.844191,84.5915156 L106.405278,85.0323652 L105.828537,85.4351428 L105.026096,85.8128412 L104.411588,86.4298493 L104.098165,86.7443965 L103.295723,86.7443965 L102.568365,86.9710156 L101.540222,86.9710156 L100.787887,87.0719366 L100.110784,86.8453175 L99.9100609,86.4676191 L99.559021,86.1149999 L98.6061123,86.1149999 L97.7284372,85.9889997 L97.3772468,85.7623807 L96.2237654,85.9261507 L95.5088958,85.9261507 L94.9196663,86.5177775 L94.2676919,86.6688568 L93.6406952,86.8453175 L92.7378921,86.7697778 L92.123685,86.505389 L91.7348778,86.1149999 L91.3713491,85.3469124 L90.9073083,84.8812858 L90.2551835,84.6295876 L89.6283372,84.6295876 L88.9136181,84.8181346 L88.4245997,84.3274289 L87.446563,84.3274289 L86.8696718,83.89927 L86.5812262,84.188738 L86.1925695,84.5791271 L85.8791463,85.2212144 L85.5405952,85.5611429 L85.4402335,86.2159209 L85.7538072,86.5936193 L85.7538072,87.1598648 L86.1925695,87.6007143 L86.1925695,88.2050318 L85.60334,88.5954209 L85.039088,89.1619685 L84.5625585,89.1619685 L83.8353505,89.1619685 L83.1582482,88.9855078 L82.4560179,89.111508 L81.9545107,88.9604286 L81.2271523,88.7084282 L80.8260068,88.3056506 L80.3494772,87.8273334 L79.7727365,87.6511748 L79.0956342,87.9279522 L78.6692102,87.4997933 L78.1300863,87.2607858 L77.6911735,87.7013332 L77.1395608,87.7013332 L76.9639656,88.230111 L76.3119913,88.230111 L75.4844217,88.7588887 L74.9827641,89.2625873 L74.481257,89.2625873 L74.3808954,89.7913651 L73.7916659,89.9297538 L73.3778811,90.345222 L72.6255452,90.3201429 L71.9985484,90.6724599 L71.672486,91 L70.9452781,90.8739998 L70.7195774,90.4963014 L70.443771,89.9926028 L70.3057926,89.4765157 L69.9171359,89.8669048 L69.2651615,90.118603 L68.6632928,89.9170631 L67.9861905,89.7409046 L67.9861905,89.1365871 L67.4595553,88.8093492 L67.2589825,88.3561112 L66.832709,88.0790316 L66.7323474,87.4747142 L66.3813075,87.1474763 L65.9110975,86.9397421 L65.6038435,86.6313891 L64.964358,86.6313891 L64.6509348,86.9459364 L64.0239381,87.0468574 L63.7729588,86.794857 L63.2213461,86.8954759 L62.9204117,86.5933171 L62.6446054,86.3165398 L62.6446054,85.9388414 L62.368799,85.6116035 L61.9673526,85.7373015 L61.6915462,86.3165398 L61.139783,86.4171586 L60.8137206,85.7626828 L60.6381254,85.1834445 L60.5127863,84.5286666 L60.0865127,83.7732698 L60.0865127,83.1689523 L59.6852167,82.7912539 L59.6852167,81.9603174 L59.3842824,80.9532224 L58.9580088,80.5250635 L58.6822025,80.2482861 L58.3937569,79.631278 L58.0803337,79.3164286 L57.6540602,79.14027 L57.6540602,78.6870319 L58.0051001,78.6870319 L58.3060345,78.2842544 L58.1806954,77.9316351 L57.7292938,77.9316351 L57.3531258,78.3093335 L56.8264907,78.3344127 L56.4378339,78.3471034 L56.0240492,78.7625716 L55.3218188,78.9641115 L54.7199501,79.2913494 L54.4439933,78.8885718 L53.9173581,79.14027 L53.4910846,79.14027 L53.6415518,78.4604129 L54.2434205,78.1833333 L54.2434205,77.8310163 L53.7419134,77.8310163 L53.2905118,77.5539367 L53.0147055,77.8310163 L52.5131983,77.6799369 L52.6761543,77.088008 L52.3124751,76.7230002 L51.810968,77.025159 L51.2592048,76.8740796 L51.1212264,76.4335322 L51.4348,76.1186828 L51.4348,75.6403655 L51.5601392,75.2877463 L51.3595664,74.6583497 L50.9833985,74.481889 L50.5319969,74.481889 L50.3062961,74.0286509 L49.6792994,74.0286509 L49.1777922,73.7264921 L48.6260291,73.6760316 L48.3250947,74.1041906 L47.6980979,74.1041906 L47.1463347,74.2552699 L46.6949332,74.0035717 L46.14317,74.1041906 L45.4660677,74.1041906 L44.8140934,73.764262 L44.5507758,73.764262 L44.2623302,74.05373 L43.7608231,74.1546511 L43.2842935,73.9026507 L42.85802,73.9026507 L42.2812792,73.7264921 L41.4285817,73.7515713 L40.8015849,73.6258733 L40.3501834,73.7515713 L39.9488874,73.3992542 L39.3721467,73.0970955 L38.8455115,73.0970955 L38.6699163,73.6509525 L38.8455115,74.0286509 L38.4944716,74.3812701 L38.7702779,74.5574286 L39.0460843,74.8345082 L39.3846354,75.1744368 L39.0712123,75.488984 L38.7201723,75.488984 L38.2938988,75.0611272 L37.6419245,75.0862064 L37.2156509,75.262365 L37.3912462,75.8920637 L37.2156509,76.3453018 L36.7893774,76.4709999 L36.2878703,76.3453018 L36.0872975,76.8740796 L36.2502535,77.2390873 L36.6012934,77.5917066 L36.839483,77.8307141 L36.9398446,78.258873 L37.2908845,78.6114923 L36.9398446,79.0898095 L36.6137822,79.4170474 L36.062019,79.4170474 L35.4977671,79.4548173 L35.2093215,79.1653492 L35.0087487,78.7560752 L34.7517508,78.7560752 L34.4821136,79.0269605 L34.0432008,79.0269605 L33.5541824,78.5359526 L33.4601405,78.2526788 L33.0902921,77.8811746 L33.0902921,77.2390873 L32.7767185,76.9242379 L32.1999778,76.9242379 L31.7234482,77.1006986 L31.547853,76.7230002 L31.0713234,76.3453018 L30.6450499,76.1186828 L30.0683092,76.3957623 L29.541674,76.471302 L29.1154005,76.3453018 L28.8144661,75.7660635 L28.3881926,75.3883651 L28.0872582,75.8920637 L27.7611958,75.8920637 L27.7611958,75.4892862 L28.0621302,75.1871274 L27.8615574,74.7589685 L27.6107286,74.1041906 L27.510367,73.4243334 L27.134199,72.9710953 L26.5323303,72.7444763 L26.3568855,72.3166195 L26.0308232,71.9890795 L25.4289544,72.0900005 L25.0779145,72.0900005 L25.0779145,71.6113811 L24.9023193,71.1079846 L24.2879617,70.994373 L23.9745386,71.3092223 L23.3977979,71.5107622 L22.8962907,71.2336827 L22.3696556,71.2336827 L22.1188268,71.6113811 L21.5921916,71.6113811 L21.0154509,71.6113811 L20.8898108,71.8884606 L20.5637484,72.2156985 L20.5136428,72.6940158 L19.8992853,72.5810084 L19.5356061,72.2156985 L19.5356061,71.7119999 L19.6987126,71.220992 L19.435395,70.9566031 L19.008971,70.9566031 L18.8333758,71.3596829 L18.5073134,71.5986904 L18.018295,71.5986904 L17.6296383,71.9890795 L17.3035759,72.3163174 L17.3035759,72.7695555 L16.8773024,72.9460162 L16.4259008,72.9206348 L16.0998384,73.2481749 L15.6985424,73.5249523 L15.8614984,74.0159602 L16.2251776,74.3812701 L16.0747104,75.0357459 L15.748648,75.363286 L16.0747104,75.5645237 L16.55124,76.0177618 L16.8521743,76.3199205 L16.7268352,76.9746984 L16.8648136,77.8307141 L16.8648136,78.5232619 L16.601496,78.7876508 L16.3506672,78.5105712 L15.9744993,78.4604129 L16.0246048,78.913651 L16.2378168,79.3541984 L16.55124,79.6690478 L16.3004112,79.920746 L15.8741376,79.9712065 L15.5230977,79.9712065 L15.2472913,79.9712065 L15.0215906,79.9712065 C15.0215906,79.9712065 14.7206562,80.0089764 14.4824666,80.0089764 C14.2442771,80.0089764 14.2943827,79.8201272 14.2943827,79.8201272 L13.9182147,79.7192061 L13.74277,79.5430476 L13.2913684,79.4675079 L13.2913684,79.8201272 L12.9403285,79.9712065 L12.5140549,80.474603 L12.0375253,80.474603 L11.5108902,80.6256823 L11.2036362,80.5439484 L10.9466382,80.802143 L10.9466382,81.2176113 L11.2099558,81.4820002 L11.360423,81.9603174 L11.2350838,82.4386347 L11.1222334,82.8794843 L10.8337878,83.1689523 L10.8337878,83.3451109 L10.5829591,83.5717299 L10.0311959,84.4782061 L10.0311959,85.1834445 L10.1816631,86.0394602 L10.0813015,86.6942382 L10.131407,87.4997933 L9.52953828,87.7768729 L9.1282423,87.6007143 L8.55150157,87.8019521 L7.9997384,87.676254 L7.92450481,87.1976346 L7.64869846,86.3666981 L7.59859289,85.7623807 L7.1972969,85.4856033 L7.1972969,85.1580632 L6.99672414,84.6292854 L6.6456842,84.1760473 L6.87138498,83.7983489 L7.02185216,83.3704922 L6.6456842,82.9674124 L6.52034503,82.5141744 L6.09407149,82.464016 L6.00634913,82.1996271 L5.69262504,81.8847777 L5.14086187,81.8092381 L4.78982193,81.4566188 L4.68946031,80.6510637 L4.33842037,80.3235236 L4.43878198,79.8201272 L4.01250845,79.4675079 L3.78680767,78.8885718 L3.4106397,78.7121111 L2.85887653,78.3344127 L2.68328133,77.7300953 L2.30711336,77.1511591 L2.18177419,76.6474605 L1.90596784,76.597 L1.70539508,76.3453018 L1.45456629,75.9926826 L1.12850389,76.0431431 L0.927931135,75.4388256 L1.00316473,74.2806513 L0.902803115,73.4243334 L0.702230356,72.9964767 L0.451401558,72.6187783 L0.50150713,71.8633814 L0.200572759,71.5863019 L0,71.1835243 L0.150467186,70.7302862 L0.02512802,70.2265876 L0.300934372,69.9495081 L0.601868743,69.8993497 L1.00316473,70.4027462 L1.37933269,70.5287464 L1.5549279,70.151048 L1.98120144,69.9748894 L2.55794216,69.9495081 L2.85887653,69.9495081 L3.2350445,70.0755083 L3.31027809,69.4461116 L3.10970533,69.0684132 L3.21006694,68.7408732 L3.51100131,68.7913337 L3.78680767,68.9928736 L4.08774204,69.269651 L4.31344282,69.0430319 L4.66448276,69.1941113 L5.24122349,69.269651 L5.66749702,69.4461116 L5.76785864,68.9928736 L5.46692426,68.7662545 L5.04065073,68.6653335 L4.76484437,68.3885561 L4.46391,68.2876351 L4.84007797,67.8848575 L5.39169067,67.6331593 L5.86822025,67.834397 L6.29449379,67.6582385 L6.69578977,68.0863974 L7.29765851,68.7408732 L7.84942168,68.1870162 L8.22558965,67.9603972 L8.12522804,67.4062381 L8.47626798,67.053921 L8.82730793,67.1043815 L8.80217991,66.7013018 L9.73011104,66.5756038 L9.90570625,66.1474448 L10.106279,65.8957466 L9.68000547,65.6942068 L9.68000547,65.165429 L9.27870948,64.7121909 L9.1282423,64.1329526 L8.75207433,63.9063336 L8.35077835,63.4530955 L8.50124553,62.9243177 L8.35077835,62.1436907 L7.87439924,61.7913736 L7.32263607,61.3633657 L7.14704086,60.7841275 L6.7708729,60.4819687 L6.64553373,60.1295006 L6.97159612,59.7518022 L7.22242492,59.1977942 L7.22242492,58.6690164 L6.94661857,58.1654689 L6.67081222,57.737461 L6.92164102,57.5360722 L7.0721082,57.1583738 L7.37304257,57.1583738 L7.59874335,56.9569851 L7.77433856,56.2771279 L7.82444413,55.8741993 L7.62372091,55.3706517 L7.34776409,55.0935722 L6.97159612,55.0432628 L6.69578977,54.741104 L6.47008899,54.4137151 L6.13153782,54.7031831 L5.86822025,54.4387942 L5.64251947,54.0610958 L5.86822025,53.6581672 L6.34474983,53.1796988 L6.67081222,52.8020004 L6.79615138,52.3487623 L7.17231935,52.3235321 L7.4481257,52.6256908 L7.59859289,53.0033892 L8.10010002,53.1798499 L8.57662959,53.0287705 L8.70196876,52.525223 L8.85243595,51.971215 L8.47626798,51.5935166 L8.72709678,51.417207 L8.70196876,50.9891991 L8.85243595,50.3848817 L9.1282423,49.7302548 L9.32881506,49.1762468 L9.83032219,49.0251674 L10.0059174,48.647469 L10.482447,48.2445404 L10.482447,47.3883736 L10.0561734,46.985596 L9.57964385,46.8597469 L9.73011104,46.4820485 L9.85545021,46.0791199 L9.50441026,45.7266517 L9.27870948,45.2231042 L9.35394308,44.870636 L9.83047265,44.3921677 L10.106279,43.8886202 L9.98093984,43.4353821 L10.3822358,43.3346122 L10.9841046,42.9569138 L10.9841046,42.428136 L11.2349334,42.1259773 L11.8617797,42.100747 L12.137586,41.773358 L12.162714,41.3956596 L12.6893492,41.1942708 L13.1156227,40.6151836 L13.6923634,40.6404139 L14.1938706,40.3382552 L14.8709729,40.4893345 L14.9713345,40.1116361 L15.1970353,39.8850171 L15.6233088,40.0864059 L15.9743488,40.4641043 L16.5262624,40.6402628 L16.7268352,41.0935009 L16.9274079,41.5970484 L17.2283423,41.2948897 L17.1782367,40.5647231 L16.7268352,40.1617945 L16.7268352,39.3056277 L17.1281312,39.2050089 L17.2534703,39.0791598 L16.7017072,38.8525407 L16.3756448,38.4748423 L21.9930362,38.449612 L23.0463065,38.0719136 L23.0463065,37.4172868 L23.2219017,35.7554138 L23.9241321,35.7554138 L24.5260008,35.2769454 L24.5260008,34.6223186 L24.9774024,34.4460089 L24.9774024,33.5898422 L25.3786984,33.5646119 L26.2563735,32.8595245 L26.682647,33.0609133 L27.6105781,31.3235007 L27.673323,30.857723 L28.4381477,30.0897866 L29.7171187,30.0897866 L30.1184147,29.3846992 L30.1184147,28.0249849 L30.9208562,27.6220563 L31.9741265,27.0932785 L32.7013344,27.370207 L33.1277584,27.370207 L33.4787984,27.7226751 L33.9094355,27.4214229 L33.8047103,27.9492942 L34.2309838,27.8989848 L34.8328526,27.924215 L34.8328526,28.3271437 L34.9581918,28.7803818 L34.6823854,28.6040721 L34.3939398,28.314453 L34.1306222,28.5788419 L34.2559614,29.0573102 L34.2559614,29.5357786 L34.6822349,29.7623976 L35.0082973,30.0897866 L35.0082973,30.6185644 L35.3719765,30.794874 L35.3719765,31.3866518 L35.7857613,31.8021201 L35.986334,32.5072075 L35.986334,33.237374 L35.8609949,33.8669217 L36.0114621,34.2193899 L36.0239508,34.9873263 L36.4628636,35.4280248 L36.4377356,35.9820328 L36.337374,36.888509 L35.8984612,37.6564454 L35.2338476,38.3237629 L34.5316173,38.3237629 L33.7541533,38.4748423 L33.077051,38.222993 L32.3372038,37.8075248 L31.8739154,37.341596 L31.8739154,36.6617389 L31.3973858,36.1832705 L31.171685,35.6544928 L30.9960898,35.1509452 L30.6701779,34.5970883 L30.4945827,33.6653819 L30.1435427,33.5143025 L30.2563931,32.9477549 L30.5448387,32.6581358 L30.1937988,32.3056676 L30.0308428,32.7463661 L29.7926533,32.9855247 L29.8930149,33.5395328 L29.9055037,34.1816201 L29.6296973,34.4585485 L29.9933765,34.8237073 L29.8930149,35.3777154 L29.5419749,36.1583424 L28.9276174,36.3471916 L28.4385991,36.8381996 L28.2505151,37.7321362 L27.7866247,38.1979138 L27.9370919,38.7266916 L28.1627927,39.3813185 L27.7991135,40.0234058 L28.3132599,40.5396439 L28.8645717,41.0935009 L29.4915684,40.6402628 L29.6169076,40.0108662 L29.2908452,39.6834772 L29.3409508,39.1294692 L29.3409508,38.7014613 L29.7672243,38.2482233 L30.1934979,38.2482233 L30.343965,39.3813185 L30.4819434,40.1241757 L30.9208562,40.5648742 L31.1966626,41.1439614 L31.9113817,41.3580409 L32.1245937,41.1439614 L31.9489985,40.7159536 L32.375272,40.3634854 L32.4004001,39.4822395 L33.177864,39.6080886 L33.9050719,39.3311601 L34.5069407,39.6585491 L35.184043,39.4444696 L35.6479333,39.4444696 L35.9365294,39.7337866 L36.3628029,40.3884135 L36.011763,40.7408817 L36.011763,41.2948897 L36.3251861,40.9046517 L36.7640989,40.4639532 L37.3659677,40.3381041 L37.8674748,39.6079375 L37.8674748,38.9783898 L38.0680476,38.550382 L38.7200219,38.222993 L38.7200219,37.8200643 L39.3470186,37.4423659 L39.3470186,36.8128182 L39.246657,36.2085008 L39.6729306,36.2085008 L39.810909,36.5231991 L40.3751609,37.0897467 L40.8014345,37.7443736 L40.8014345,38.6256195 L40.6509673,39.0788576 L40.4252665,39.3054766 L40.0490985,38.9277782 L39.5224634,38.8019291 L38.7200219,39.0788576 L38.7200219,39.7334845 L38.9205946,40.3378019 L38.9205946,40.8413494 L39.4973354,40.9924288 L40.0490985,41.2442781 L40.6760953,40.9421194 L40.6760953,40.4888813 L41.3280696,40.3378019 L41.9550664,40.6399606 L41.8547048,40.237032 L42.8327415,40.4133416 L43.3593766,40.3125717 L44.3122853,40.4384208 L44.8640485,40.4384208 L45.1398548,40.9419683 L45.3906836,40.9419683 L45.3906836,40.4887302 L46.1931251,40.2368809 L46.6196996,40.2368809 L46.7952948,40.8915078 L46.3187652,40.8915078 L46.168298,41.3447459 L45.7921301,41.470595 L46.3688708,41.9993728 L46.7701668,41.9993728 L47.5225027,41.6719838 L48.2372218,41.8105235 L49.0146858,42.5911506 L49.2780034,42.3267617 L49.8046385,42.3267617 L50.4692521,42.1126823 L50.7325697,42.3770712 L50.6573361,42.7295393 L50.2560401,43.0064678 L50.2560401,43.4344756 L50.7325697,43.8374043 L50.7701865,43.3716266 L50.9833985,43.1575471 L51.4849056,43.2833963 L51.4849056,42.8804676 L51.9614352,42.8049279 L52.0617968,42.2006105 L51.9865632,41.4704439 L52.4379647,41.2438249 L52.8266215,41.1305153 L53.2905118,41.596293 L53.4910846,41.3949042 L54.0052309,42.0369915 L54.5946109,42.6287694 L55.0711405,43.1072377 L55.3845636,43.749325 L55.9739436,44.3411029 L56.3752396,44.9706506 L56.8015131,45.5497378 L56.8015131,46.0532853 L57.1524026,46.6078976 L57.6539097,46.3057389 L57.6539097,45.7769611 L58.2306505,45.2481834 L57.8293545,45.1223343 L57.5535481,44.4677074 L57.6539097,43.76262 L57.1773802,43.435231 L56.9140626,42.8939137 L57.1522521,42.654755 L57.6537593,42.4029057 L57.6537593,41.9999771 L57.7790984,41.3956596 L58.0047992,41.0935009 L58.0047992,40.7158025 L57.6787368,40.6150326 L57.854332,40.111485 L58.1301384,39.7590169 L58.6316455,39.5827073 L59.1707694,39.3183184 L59.3588534,39.1294692 L59.785127,38.7014613 L60.1111893,37.9712948 L60.3620181,37.3669773 L60.6378245,36.7626599 L61.1143541,36.5108106 L61.4152884,36.9388184 L62.0171572,36.9388184 L62.3180916,37.2409771 L62.8447267,37.2409771 L63.0704275,38.0971439 L62.8195987,38.3489932 L62.7067483,39.268009 L61.9920292,39.9856359 L61.7914564,40.6402628 L62.21773,41.0179612 L62.0672628,41.874128 L61.9419236,42.5539851 L61.4404165,43.3093819 L61.2648213,44.3921677 L60.9890149,45.3489533 L60.7884422,45.8274216 L60.9765261,46.4947392 L61.4154389,46.9354377 L61.3402053,47.3383663 L60.7884422,47.7663742 L60.6880805,48.6980806 L60.1363174,48.84916 L59.4843431,49.5037869 L59.1081751,50.0577949 L58.7571351,50.2591837 L58.1301384,50.1333346 L57.7539704,50.3851839 L57.3401857,50.120795 L57.0768681,49.8564061 L56.7007001,49.730557 L56.7007001,50.2090253 L57.0768681,50.7881125 L57.453036,50.9644221 L57.9545432,51.3168903 L58.3808167,51.29166 L58.6817511,51.7196679 L59.1331526,51.7196679 C59.1331526,51.7196679 59.3212366,51.3797393 59.220875,51.2789694 C59.1205134,51.1781994 59.4841926,51.0145805 59.4841926,51.0145805 L59.810255,51.0145805 L59.9607222,50.8635011 L60.5877189,50.6871915 L61.0892261,50.410263 L61.0892261,49.8814853 L61.3149268,49.6548662 L61.7035836,49.2646282 L62.0170067,48.9499299 L62.1674739,48.3456125 L62.0421347,47.8168347 L61.9920292,47.3383663 L62.3305803,46.9984378 L62.6691315,46.6585092 L63.1957667,46.6585092 L63.7725074,46.5829695 L63.9354633,47.0739775 L64.1736529,47.3131361 L64.4745873,48.0937632 L64.0738932,48.4963897 L64.0990212,49.1007071 L64.0990212,49.4784055 L64.6005283,49.981953 L65.177269,50.1078021 L65.177269,49.755334 L64.6130171,49.591715 L64.3998051,49.3776356 L64.3998051,49.0754769 L64.3496995,48.6222388 L64.7509955,48.4963897 L64.9014627,48.1690007 L64.7509955,47.6905323 L64.9265907,47.2876037 L64.6757619,46.7840562 L64.3496995,46.4818974 L64.1491267,46.2805087 L63.5347692,46.0664292 L63.1837293,45.713961 L62.8952837,46.0035802 L62.5191157,46.1798898 L62.318543,45.9029613 L61.8671414,45.9029613 L61.7919078,45.424493 L62.0928422,45.1223343 L62.0176086,44.316628 L62.3686485,43.76262 L62.5943493,43.1079931 L63.0958564,42.6044456 L62.9202612,42.0504376 L62.7697941,41.5719692 L62.8325389,41.0558821 L62.4688597,40.6907233 L62.8701557,40.2877947 L63.4971524,39.6582469 L64.0237876,39.6582469 L64.324722,39.1797786 L64.5252947,38.6510008 L64.3496995,38.222993 L64.5252947,37.8452946 L64.9265907,37.8452946 L64.8012515,38.3740724 L64.8012515,39.1042389 L64.7008899,39.7588658 L64.2494884,40.2121039 L64.2494884,40.8416516 L64.2494884,41.2948897 L64.7761235,41.6978183 L65.0770579,41.9496676 L65.4657146,41.710509 L65.8543714,42.100747 L66.2806449,42.5036757 L66.2806449,42.2015169 L66.1176889,41.8112789 L65.8292433,41.5216598 L65.3778418,41.2950408 L65.3778418,41.093652 L65.0016738,40.7159536 L64.8262291,40.1617945 L65.3528642,39.8093263 L65.603693,40.0611756 L66.004989,40.4641043 L66.3059234,40.1871758 L66.2055618,39.8597868 L66.167945,39.5701677 L66.4563906,39.2805485 L66.9578977,39.3813185 L67.3716825,39.3183184 L67.7102336,39.6582469 L68.362208,40.0107151 L68.1866127,40.5142626 L68.3495687,40.6778816 L68.7884815,41.1185801 L69.4655838,41.1185801 L69.5659454,40.7156514 L69.2901391,40.337953 L69.3152671,39.9854848 L68.8387375,39.8091752 L68.4876976,39.230088 L68.2869744,39.0286992 L68.4374415,38.4243818 L68.6631423,37.9208343 L68.4625696,37.7194455 L68.3372304,37.0898978 L68.8387375,36.6366597 L70.017347,36.6366597 L70.6192157,36.8632787 L70.6192157,36.7121994 L71.5972524,36.7121994 L72.2492268,36.4352709 L72.7256059,36.4352709 L72.9764347,36.1834216 L72.7256059,35.8057232 L72.4246715,35.7049533 L72.1738427,35.453104 C72.1738427,35.453104 72.2742043,35.352334 72.4622883,35.1634848 C72.6503723,34.9746356 72.6503723,35.352334 72.6503723,35.352334 L72.9513067,35.2767944 L72.7507339,35.0501753 L72.8887123,34.735477 L72.6755003,34.5213975 L72.9263291,34.1689294 L73.277369,33.8920009 L72.9263291,33.8667707 L72.9012011,33.4890723 L73.6034314,33.5143025 L73.8792378,32.9352153 L74.5688289,32.6708264 L74.8321465,32.4064375 L75.7725664,32.2678978 L76.0107559,32.0287391 L76.6878583,31.8273503 L76.8383255,31.6510407 L76.3869239,31.4999614 L76.6377527,31.2481121 L77.289727,31.0970327 L77.8414902,31.021493 L77.9668294,30.7445646 L78.4182309,30.6690249 L78.1800414,31.122263 L78.1800414,31.4874218 L78.4934645,31.1727235 L79.2710789,31.1978026 L79.3463125,30.794874 L79.8478197,30.694104 L80.3493268,30.794874 L80.123626,30.4927153 L79.8226916,30.2660962 L79.6722244,29.9891677 L80.2239876,29.9891677 L80.8007283,29.8128581 L80.9763235,29.8128581 L80.926218,29.3848503 L80.7254947,29.2337709 L80.7254947,28.6294535 L80.8509844,28.2265248 L81.2271523,27.2948184 L81.6785539,26.9674294 L82.0796994,26.5394216 L82.581357,26.8415803 L82.957525,26.7912709 L83.0703754,27.3075091 L82.6815682,27.697747 L82.3556562,28.1257549 L83.1517781,28.1698701 L83.3085649,28.0124454 L83.7975833,28.0124454 L84.1612625,28.3776042 L83.8352001,28.7049932 C83.8352001,28.7049932 83.8100721,29.0323821 83.9605392,29.0323821 C84.1110064,29.0323821 84.5123024,29.2086917 84.5123024,29.2086917 L84.6376416,28.7806839 L84.4119408,28.5540649 L84.963704,28.2519061 L85.4652111,28.2519061 L85.9793575,27.8867473 L86.2678031,28.1763665 L86.6564598,27.9875173 L86.9449054,28.2771364 L87.1955837,28.7806839 L87.4965181,29.0325332 L87.6721133,28.8311444 L87.9354309,29.0955333 L88.2739821,29.4354619 L88.2238765,29.9642396 L87.7222189,29.8634697 L87.9229421,30.0648585 L88.4244492,30.341787 L88.7378724,30.8831043 L88.4495773,31.1725724 L88.4495773,31.6761199 L88.1987485,32.0285881 L87.9605589,32.519596 L87.6721133,32.8092151 L87.1706062,33.4135326 L87.1706062,33.6653819 L87.020139,34.3704693 L86.643971,34.7481677 L86.4935038,35.5287947 L85.8916351,35.6798741 L85.7035511,36.2464217 L85.2897664,36.6618899 L85.1894047,37.3165168 L85.0640656,37.7697549 L85.5154671,37.5683661 L85.4151055,37.0648186 L85.8665071,36.7878901 C85.8665071,36.7878901 86.2678031,36.662041 86.4935038,36.662041 C86.7192046,36.662041 86.7944382,36.2088029 86.7944382,36.2088029 L87.2207118,35.8563348 L87.6220077,35.7052554 L87.8601973,35.2394777 L87.6721133,35.0506285 L87.3711789,35.0253983 L87.396307,34.8237073 L87.3711789,34.4207787 L87.7473469,34.3955484 L88.0482813,34.3955484 L88.4745548,34.4963184 L88.9762124,34.6977072 L89.0764236,34.3955484 L89.3899972,33.9548499 L89.6533148,34.2192388 L89.6533148,34.7227863 L89.9542491,35.1507942 L90.3052891,35.1507942 L89.9542491,34.8237073 L90.1924387,34.5845487 L90.656329,34.118771 L91.2833258,33.7913821 L92.2362345,33.6150724 L92.9885704,33.3884534 L93.1768048,33.6780725 L93.0012096,33.8543822 L93.4149944,34.2698504 L94.1923079,34.2698504 L94.2174359,34.0684616 L94.2926695,33.7915331 L94.5936039,34.2700015 L95.120239,34.0686127 L95.6468742,33.6153746 C95.6468742,33.6153746 96.1986373,33.5146047 96.3239765,33.5146047 C96.4493157,33.5146047 96.3239765,33.0613666 96.3239765,33.0613666 L96.2487429,32.5578191 L95.8725749,31.9787319 L95.9729366,31.3996447 L96.0481702,31.0974859 L96.3491045,31.3996447 L96.6625277,31.160486 L96.9258452,31.4248749 L97.3271412,31.7018034 L97.4273524,31.3996447 L97.6280756,31.348882 L97.8286484,31.575501 L98.0292211,31.4244217 C98.0292211,31.4244217 98.0042436,30.958644 98.1923276,30.958644 C98.3804115,30.958644 98.4305171,30.7194854 98.4305171,30.7194854 L98.9822803,31.1474932 L99.157725,30.9711836 L99.7595938,31.1725724 L99.559021,31.7894294 L99.8473161,31.7894294 L100.135762,32.0790486 L100.135762,32.5575169 L100.612291,32.2553582 L100.86312,32.5072075 L100.86312,33.0612155 L100.537058,33.1619854 L100.336485,33.3632231 L100.687525,33.7156913 C100.687525,33.7156913 100.963331,33.5898422 100.963331,33.463842 C100.963331,33.3378418 101.189032,33.690461 101.189032,33.690461 L101.189032,34.0933897 L101.703178,34.080699 L102.192197,34.571707 L102.568365,34.8235563 L103.095,34.9243262 L103.320701,34.6977072 L103.897441,34.9998659 L103.947697,34.5215486 L103.696869,33.6906121 L103.546401,33.3129137 L103.546401,32.9604456 L103.220339,32.6330566 L103.220339,32.1798185 L103.847336,32.2553582 L104.198376,32.6078263 L104.750139,32.456747 L105.377136,32.456747 L105.251646,31.8021201 L105.602836,31.1474932 L106.254811,30.9964138 L106.73134,30.9711836 L107.282953,31.122263 L107.282953,30.7445646 L106.693724,30.4801757 L106.906785,30.2660962 L107.182742,29.9639375 L107.659121,29.9891677 L108.035289,29.6114693 L107.859844,29.5106994 L107.483676,29.133001 L107.057252,28.9063819 L107.057252,28.3523739 L106.881808,28.2012946 L106.630979,28.8559214 L106.330044,28.6545326 L106.330044,28.1257549 L106.881808,27.6222074 L106.806574,27.2697392 L106.279939,26.9423502 L106.605851,26.6149613 L107.08238,26.6149613 L107.784611,26.2624931 L107.985183,25.6834059 L108.913115,25.3309377 L109.640322,25.0035488 C109.640322,25.0035488 109.740684,25.1043187 109.740684,25.2553981 C109.740684,25.4064774 109.264154,25.582787 109.264154,25.582787 L109.088559,26.2626442 L109.514983,26.0611043 L109.891151,25.6834059 L110.36753,25.8344853 L110.242191,26.8165011 L110.668465,26.4135725 L110.668465,25.9351041 L110.517998,25.1293979 L110.618359,24.7769297 L110.84406,24.147382 L111.370695,23.8955327 L112.123031,23.5681437 L112.574433,23.8955327 C112.574433,23.8955327 112.361221,24.1851519 112.198265,24.3487708 C112.035309,24.5123898 112.37386,24.6258504 112.37386,24.6258504 L112.925473,24.6258504 L113.276663,24.2229217 C113.276663,24.2229217 113.677808,24.6509295 113.753042,24.7264692 C113.828276,24.8020089 113.677808,24.147382 113.677808,24.147382 L114.354911,23.7696836 L114.83144,24.0215329 L115.358076,23.9964537 L115.834605,23.5179854 L116.336112,22.8884377 L116.336112,22.1582711 L116.963109,21.2265647 L117.489744,20.6977869 L117.966123,20.1186997 L118.793693,19.9928506 L119.483434,19.9550808 L119.821986,20.2950094 L120.524065,21.0000967 L121.151062,20.7231683 L121.602464,20.3580094 L122.091482,20.3580094 L121.853293,20.1186997 L121.853293,19.7660805 L122.329672,19.2877632 L122.329672,18.4568267 L122.555372,18.0288189 L122.93154,18.0288189 L123.257603,17.7014299 L123.257603,17.1978824 L123.8846,16.7446443 L124.035067,16.1403269 L123.784238,15.8884776 L123.8846,15.5863189 L123.53356,15.0827713 L123.809366,14.5790727 L124.072684,14.3146839 L124.549213,14.7931522 L124.185534,15.158311 L124.561702,15.5360094 L125.138443,15.5360094 L125.539739,15.3849301 L126.091502,15.1330808 L126.593009,15.0072317 L126.718348,14.604303 L126.567881,14.2013743 L126.292075,14.1510649 L125.439377,13.7733665 L124.812531,13.8741364 L124.662063,13.5216683 L124.160406,13.5216683 L124.160406,13.2447398 L124.285896,12.7662715 L124.737297,12.5396524 L124.787403,12.0108747 L125.188699,11.7842556 L125.539739,11.7842556 L125.389271,11.3562478 L125.539739,10.9030097 L125.966012,10.2733109 Z" id="path200"></path>
                        <polygon id="polygon202" points="129.25 59.0869893 129 59.3260968 129 59.6303332 129 59.95643 129.424931 59.8043118 129.650139 60 129.900139 59.7827529 130 59.3476557 129.725035 59"></polygon>
                        <path d="M135.303091,56.6373212 L135.129767,56.6798977 L135,56.3186606 L135,56 L135.563076,56.1486494 L135.844539,56.2760841 L135.996235,56.6161067 L136.299476,56.9135527 L136.840924,57.0197729 L136.970842,57.3596481 L137.577174,57.7420998 L137.902043,57.7420998 L138.161878,58.1031896 L138.378457,58.6768671 L138.71414,59.0059876 L139.353064,59.6540635 L139.764445,59.7602837 L140.327671,59.9727241 L140.86912,60.4401814 L141.605519,60.8437003 L142.081934,61.2473666 L142.710194,61.5660272 L143.251492,61.8846878 L143.598139,62.160772 L144.204471,62.3945743 L144.11796,62.6708058 L143.901531,62.8830988 L143.49,63.0105336 L143.165131,63.0105336 L143.251793,63.456629 L143.165131,63.7752896 L143.165131,64.0301592 L143.533256,64.5826221 C143.533256,64.5826221 143.880053,64.9647792 143.814869,65.0285702 C143.749685,65.0923613 143.836647,65.6872534 143.836647,65.6872534 L144.11826,65.9634848 L144.551419,66.388513 L144.919544,66.622168 L145.48262,66.622168 L145.807489,66.9406813 L146.175614,66.9406813 L146.370565,67.3443475 L146.84713,67.3657094 L147.139407,67.0788707 L147.648413,67.3657094 L147.951805,67.7481611 C147.951805,67.7481611 148.060244,68.0030307 147.951805,68.0030307 C147.843365,68.0030307 147.258661,67.7267992 147.258661,67.7267992 L147.009639,67.9710615 L146.457377,67.9710615 L146.284204,68.4066969 L146.392493,68.8314304 L146.73899,69.1713056 L146.998825,69.7237685 L146.652329,70 L146.370715,69.6601248 L146.002591,69.2987404 L145.352853,68.7039956 L145.352853,68.3003294 L144.919694,67.8755959 L144.508313,67.4719296 L144.2267,67.1108398 L143.880053,66.4521567 L143.446894,66.0484905 L142.992108,65.7936209 L142.558949,65.6661861 L142.190524,64.9014301 L141.38924,63.8180134 L140.739502,63.1805449 L140.198204,62.6495912 L139.72149,62.0122699 L139.418248,61.5237454 L138.595337,61.1625083 L137.945599,60.8864241 L137.555696,60.8438477 L137.035876,60.1427354 L137.035876,59.8242221 L136.4728,59.2717591 L136.169558,58.7194435 L135.563076,58.5282177 L135.714772,58.1033369 L135.714772,57.7846763 L136.212814,57.9333256 L136.299476,57.5084448 L136.007199,57.2217534 L136.007199,57.0623494 L135.720179,56.780667 L135.303091,56.6373212 Z" id="path204"></path>
                        <polygon id="polygon206" points="153.782999 68.0638926 153.869799 68.5105504 153.913124 68.936255 154.086876 69 154.086876 68.6595839 154.217001 68.3829128 154.217001 68"></polygon>
                        <polygon id="polygon208" points="154.858968 67.8259983 154.858968 68.0215804 155.141032 68.1740017 155.141032 67.8474279"></polygon>
                        <polygon id="polygon210" points="154.125108 65.8850538 154.625253 66 154.791968 65.6322041 154.541751 64.8967716 155 64.6439219 154.916787 64.1147868 154.208321 64 154 64.5978477 154.27102 64.7469111 154.041895 65.1953766"></polygon>
                        <polygon id="polygon212" points="154.978262 63.7605025 154.869799 63.8693101 154.9566 64.2394975 155.130201 63.9782687"></polygon>
                        <polygon id="polygon214" points="155.804737 61.9204629 155.913049 61.2318148 155.761412 60.8082292 155.848062 60.3578251 156.140957 60 156.216775 60.4902645 156.151637 60.9935709 156.238588 61.5762307 156.08665 62"></polygon>
                        <polygon id="polygon216" points="143.053973 29.1539399 143.053973 29.6374028 143 30.07697 143.324213 30.2528578 143.54048 30.4726414 143.567466 30.8681603 144 31 143.891867 30.604481 143.702586 30.2967535 143.891867 29.7911904 143.891867 29.1758878 143.378186 29"></polygon>
                        <polygon id="polygon218" points="151.4 31.7932504 151 31.902058 151.200099 32.2284809 151.885785 32.2284809 152.571471 32.2284809 153 31.902058 152.457157 31.7715191 151.914116 31.9456716"></polygon>
                        <polygon id="polygon220" points="153.329792 48 153.202154 48.347762 153 48.5313589 153.234027 48.7440365 153.372289 49.0048244 153.329792 49.3527205 153.308396 49.7971053 153.531799 50 153.776597 49.8744304 153.776597 49.4106138 154 49.2078531 153.819094 48.8115787 153.521322 48.5410078 153.542423 48.1932458"></polygon>
                        <polygon id="polygon222" points="153.815568 50.7823847 153.815568 51.1088076 154.032494 51.2176153 154.184432 51.0218823"></polygon>
                        <polygon id="polygon224" points="155.848137 57.0243572 155.848137 57.5610622 155.848137 58 156.151863 58 156.065063 57.5854195 156.065063 57.3169824 156.065063 57"></polygon>
                        <polygon id="polygon226" points="153.500133 29.8585954 153 30.0544793 153.269138 30.2067496 153.634569 30 154 29.7932504"></polygon>
                        <polygon id="polygon228" points="124.50805 4.07891806 124.251212 4 124.02677 4.1928401 123.534821 4.4035004 123.133851 4.73237868 123.171096 5.29817025 123 5.43866348 123.085548 5.89466985 123.406402 6.28066826 123.737924 6.91233095 124.251212 7 124.598836 6.71487669 124.860912 6.32458234 124.57226 6.07016706 125 5.56133652 124.925121 5.00875099 124.925121 4.35083532"></polygon>
                        <polygon id="polygon230" points="0 39.2222319 0.388924984 39.2985832 0.722224999 39.215279 0.849217852 39 1.15073217 39.0417177 1.43260533 39.2882193 1.44445 39.6249781 1.67459643 39.6875547 1.72227498 39.9513731 2.07941426 40.0069967 2.15872857 39.7569529 1.96441601 39.5868025 2.13099105 39.441053 2.23819281 39.5348522 2.57943925 39.7847647 2.57943925 40.1596991 2.53176071 40.4860941 2.73012145 40.7707714 2.92863212 40.8888403 3 41.3124453 2.82547853 41.6318874 1.99215353 42 0.730171423 40.6874672"></polygon>
                    </g>
                    <rect id="Rectangle" fill="#BDC8D0" x="0" y="0" width="157" height="91"></rect>
                </g>
            </g>
        </g>
    </g>
</svg>