<svg width="28" height="25" viewBox="0 0 28 25" fill="none" xmlns="http://www.w3.org/2000/svg">
<g clip-path="url(#clip0)">
<path opacity="0.5" d="M10.788 11.134C11.432 11.134 12.0013 11.2553 12.496 11.498C13 11.7407 13.392 12.086 13.672 12.534C13.952 12.9727 14.092 13.486 14.092 14.074C14.092 14.6713 13.9473 15.1987 13.658 15.656C13.3687 16.1133 12.9673 16.468 12.454 16.72C11.95 16.9627 11.3807 17.084 10.746 17.084C9.44867 17.084 8.45467 16.6593 7.764 15.81C7.07333 14.9513 6.728 13.7427 6.728 12.184C6.728 11.092 6.91467 10.168 7.288 9.412C7.66133 8.656 8.184 8.08667 8.856 7.704C9.528 7.312 10.312 7.116 11.208 7.116C12.1787 7.116 12.9533 7.29333 13.532 7.648L13.126 8.46C12.6593 8.152 12.0247 7.998 11.222 7.998C10.1393 7.998 9.29 8.34333 8.674 9.034C8.058 9.71533 7.75 10.7093 7.75 12.016C7.75 12.2493 7.764 12.5153 7.792 12.814C8.03467 12.282 8.422 11.8713 8.954 11.582C9.486 11.2833 10.0973 11.134 10.788 11.134ZM10.704 16.23C11.4133 16.23 11.9873 16.0387 12.426 15.656C12.874 15.264 13.098 14.746 13.098 14.102C13.098 13.458 12.874 12.9447 12.426 12.562C11.9873 12.1793 11.39 11.988 10.634 11.988C10.1393 11.988 9.70067 12.0813 9.318 12.268C8.94467 12.4547 8.65067 12.7113 8.436 13.038C8.22133 13.3647 8.114 13.7287 8.114 14.13C8.114 14.5033 8.212 14.8487 8.408 15.166C8.61333 15.4833 8.912 15.74 9.304 15.936C9.696 16.132 10.1627 16.23 10.704 16.23ZM21.6696 12.52H19.0656V15.068H18.1836V12.52H15.5796V11.694H18.1836V9.132H19.0656V11.694H21.6696V12.52Z" fill="white"/>
<path opacity="0.4" d="M26.5566 9.62436C27.4498 11.1714 27.4498 13.0773 26.5566 14.6244L22.4434 21.7487C21.5502 23.2957 19.8996 24.2487 18.1132 24.2487H9.88675C8.10042 24.2487 6.44979 23.2957 5.55662 21.7487L1.44338 14.6244C0.550211 13.0773 0.550212 11.1714 1.44338 9.62436L5.55662 2.5C6.44979 0.952994 8.10042 0 9.88675 0L18.1132 0C19.8996 0 21.5502 0.952995 22.4434 2.5L26.5566 9.62436Z" stroke="white"/>
</g>
<defs>
<clipPath id="clip0">
<rect width="28" height="25" fill="white"/>
</clipPath>
</defs>
</svg>
